<?xml version="1.0" encoding="UTF-8" standalone="no"?>
<!DOCTYPE svg PUBLIC "-//W3C//DTD SVG 1.1//EN" "http://www.w3.org/Graphics/SVG/1.1/DTD/svg11.dtd">
<svg width="100%" height="100%" viewBox="0 0 5877 1472" version="1.1" xmlns="http://www.w3.org/2000/svg" xmlns:xlink="http://www.w3.org/1999/xlink" xml:space="preserve" xmlns:serif="http://www.serif.com/" style="fill-rule:evenodd;clip-rule:evenodd;stroke-linecap:round;stroke-miterlimit:1.5;">
    <g transform="matrix(1,0,0,1,3.13,-284.829)">
        <g transform="matrix(1,0,0,1,-3924.43,-3920.69)">
            <g>
                <g transform="matrix(1,0,0,1,-149.957,603.397)">
                    <path d="M4231.15,4213.24C4320.07,4257.74 4546.97,4289.42 4812.55,4289.42C5078.12,4289.42 5305.02,4257.74 5393.94,4213.24C5419.88,4226.23 5434.08,4240.3 5434.08,4255C5434.08,4320.09 5155.58,4372.94 4812.55,4372.94C4469.51,4372.94 4191.01,4320.09 4191.01,4255C4191.01,4240.3 4205.21,4226.23 4231.15,4213.24Z" style="fill:rgb(44,62,79);"/>
                </g>
                <g transform="matrix(1,0,0,1,-149.957,603.397)">
                    <path d="M4230.47,4106.6C4318.9,4151.28 4546.28,4183.12 4812.55,4183.12C5078.81,4183.12 5306.19,4151.28 5394.62,4106.6C5420.13,4119.49 5434.08,4133.44 5434.08,4148.01C5434.08,4213.1 5155.58,4265.95 4812.55,4265.95C4469.51,4265.95 4191.01,4213.1 4191.01,4148.01C4191.01,4133.44 4204.96,4119.49 4230.47,4106.6Z" style="fill:rgb(44,62,79);"/>
                </g>
                <g transform="matrix(1,0,0,1,-149.957,603.397)">
                    <path d="M5393.14,3998.87C5419.59,4011.97 5434.08,4026.18 5434.08,4041.02C5434.08,4106.11 5155.58,4158.96 4812.55,4158.96C4469.51,4158.96 4191.01,4106.11 4191.01,4041.02C4191.01,4026.55 4204.78,4012.68 4229.98,3999.86C4319.45,4044.15 4545.78,4075.64 4810.57,4075.64C5077.32,4075.64 5305.04,4043.69 5393.14,3998.87Z" style="fill:rgb(44,62,79);"/>
                </g>
                <g transform="matrix(1,0,0,1,-149.957,603.397)">
                    <path d="M5390.68,3891.64C5417.44,3904.8 5432.11,3919.1 5432.11,3934.04C5432.11,3999.13 5153.61,4051.97 4810.57,4051.97C4467.54,4051.97 4189.03,3999.13 4189.03,3934.04C4189.03,3919.47 4202.98,3905.51 4228.5,3892.62C4318.3,3936.79 4544.29,3968.16 4808.6,3968.16C5074.87,3968.16 5302.25,3936.32 5390.68,3891.64Z" style="fill:rgb(44,62,79);"/>
                </g>
                <g transform="matrix(1,0,0,1,-149.957,603.397)">
                    <path d="M5389.39,3784.99C5415.71,3798.05 5430.14,3812.24 5430.14,3827.05C5430.14,3892.14 5151.64,3944.99 4808.6,3944.99C4465.57,3944.99 4187.06,3892.14 4187.06,3827.05C4187.06,3812.61 4200.77,3798.78 4225.84,3785.98C4315.21,3830.33 4541.67,3861.86 4806.63,3861.86C5073.58,3861.86 5301.45,3829.86 5389.39,3784.99Z" style="fill:rgb(44,62,79);"/>
                </g>
                <g transform="matrix(1,0,0,1,-1.20413,-610.472)">
                    <ellipse cx="4657.88" cy="4933.93" rx="621.538" ry="117.939" style="fill:rgb(44,62,79);"/>
                </g>
            </g>
            <g>
                <g transform="matrix(1,0,0,1,3924.43,3920.69)">
                    <g>
                        <rect x="660.475" y="1591.89" width="137.5" height="137.5" style="fill:rgb(44,62,79);"/>
                        <path d="M729.225,1014.03L729.225,1619.39" style="fill:none;stroke:rgb(44,62,79);stroke-width:45.83px;"/>
                    </g>
                </g>
                <g transform="matrix(1,0,0,1,3924.43,3920.69)">
                    <g>
                        <path d="M534.438,1658.86L437.21,1756.09L339.983,1658.86L437.21,1561.63L534.438,1658.86Z" style="fill:rgb(44,62,79);"/>
                        <path d="M551.283,988.026L551.283,1544.79C551.283,1544.79 508.202,1587.87 466.379,1629.69" style="fill:none;stroke:rgb(44,62,79);stroke-width:45.83px;"/>
                    </g>
                </g>
                <g transform="matrix(1,0,0,1,3924.43,3920.69)">
                    <g>
                        <path d="M238.442,1639.6L141.215,1736.83L43.988,1639.6L141.215,1542.38L238.442,1639.6Z" style="fill:rgb(44,62,79);"/>
                        <path d="M368.314,988.026L368.314,1412.5C368.314,1412.5 251.92,1528.9 170.383,1610.43" style="fill:none;stroke:rgb(44,62,79);stroke-width:45.83px;"/>
                    </g>
                </g>
                <g transform="matrix(1,0,0,1,3924.43,3920.69)">
                    <g>
                        <path d="M191.325,1421.27L94.097,1518.5L-3.13,1421.27L94.097,1324.04L191.325,1421.27Z" style="fill:rgb(44,62,79);"/>
                        <path d="M215.062,988.026L215.062,1300.3C215.062,1300.3 167.862,1347.5 123.265,1392.1" style="fill:none;stroke:rgb(44,62,79);stroke-width:45.83px;"/>
                    </g>
                </g>
                <g transform="matrix(1,0,0,1,3924.43,3920.69)">
                    <g>
                        <path d="M1031.3,1561.63L1128.53,1658.86L1031.3,1756.09L934.075,1658.86L1031.3,1561.63Z" style="fill:rgb(44,62,79);"/>
                        <path d="M917.23,988.026L917.23,1544.79C917.23,1544.79 960.311,1587.87 1002.13,1629.69" style="fill:none;stroke:rgb(44,62,79);stroke-width:45.83px;"/>
                    </g>
                </g>
                <g transform="matrix(1,0,0,1,3924.43,3920.69)">
                    <g>
                        <path d="M1327.3,1542.38L1424.53,1639.6L1327.3,1736.83L1230.07,1639.6L1327.3,1542.38Z" style="fill:rgb(44,62,79);"/>
                        <path d="M1100.2,988.026L1100.2,1412.5C1100.2,1412.5 1216.59,1528.9 1298.13,1610.43" style="fill:none;stroke:rgb(44,62,79);stroke-width:45.83px;"/>
                    </g>
                </g>
                <g transform="matrix(1,0,0,1,3924.43,3920.69)">
                    <g>
                        <path d="M1374.42,1324.04L1471.64,1421.27L1374.42,1518.5L1277.19,1421.27L1374.42,1324.04Z" style="fill:rgb(44,62,79);"/>
                        <path d="M1253.45,988.026L1253.45,1300.3C1253.45,1300.3 1300.65,1347.5 1345.25,1392.1" style="fill:none;stroke:rgb(44,62,79);stroke-width:45.83px;"/>
                    </g>
                </g>
            </g>
        </g>
        <g transform="matrix(5.7,0,0,5.7,1466.34,1491.04)">
            <text x="0px" y="0px" style="font-family:'Helvetica-Bold', 'Helvetica';font-weight:700;font-size:192px;">Maggma</text>
        </g>
    </g>
</svg>
